<svg width="16" height="17" viewBox="0 0 16 17" fill="none" xmlns="http://www.w3.org/2000/svg">
<path d="M12.2061 0.00488281C14.3194 0.112115 16 1.85996 16 4V13C16 15.2091 14.2091 17 12 17H4C1.85996 17 0.112115 15.3194 0.00488281 13.2061L0 13V4C0 1.79086 1.79086 0 4 0H12L12.2061 0.00488281ZM4 1.5C2.61929 1.5 1.5 2.61929 1.5 4V13C1.5 14.3807 2.61929 15.5 4 15.5H12C13.3807 15.5 14.5 14.3807 14.5 13V4C14.5 2.61929 13.3807 1.5 12 1.5H4ZM12 11.3926C12.4142 11.3926 12.7499 11.7284 12.75 12.1426C12.75 12.5568 12.4142 12.8926 12 12.8926H4C3.58579 12.8926 3.25 12.5568 3.25 12.1426C3.25009 11.7284 3.58584 11.3926 4 11.3926H12ZM12 7.75C12.4142 7.75 12.75 8.08579 12.75 8.5C12.75 8.91421 12.4142 9.25 12 9.25H4C3.58579 9.25 3.25 8.91421 3.25 8.5C3.25 8.08579 3.58579 7.75 4 7.75H12ZM9.59961 4.10742C10.0138 4.10742 10.3496 4.44321 10.3496 4.85742C10.3493 5.27141 10.0137 5.60742 9.59961 5.60742H4C3.58595 5.60742 3.25026 5.27141 3.25 4.85742C3.25 4.44321 3.58579 4.10742 4 4.10742H9.59961Z" fill="white"/>
</svg>
