<svg width="14" height="13" viewBox="0 0 14 13" fill="none" xmlns="http://www.w3.org/2000/svg">
<path d="M12.95 6.3C12.95 3.50183 10.3929 1.05 7 1.05C3.60711 1.05 1.05 3.50183 1.05 6.3C1.05 7.42504 1.45214 8.47486 2.154 9.34268C2.41562 9.66622 2.4621 10.1137 2.27158 10.4836L1.72197 11.55H7.16064C7.18191 11.548 7.20328 11.5452 7.2249 11.5445C10.5086 11.4369 12.95 9.03605 12.95 6.3ZM13.9911 6.61719C13.8118 9.87193 10.8878 12.4749 7.25908 12.5938V12.6H0.872266L0.800488 12.5952C0.449635 12.5449 0.240689 12.1321 0.416992 11.7899L1.33779 10.0023C0.549709 9.02784 0.0631784 7.8431 0.00546875 6.5584L0 6.3C0 2.82061 3.13401 0 7 0L7.36025 0.00820313C11.0588 0.176953 14 2.92935 14 6.3L13.9911 6.61719Z" fill="#E8F2FF"/>
<path d="M8.04999 4.72485C8.33994 4.72485 8.57499 4.9599 8.57499 5.24985C8.57499 5.5398 8.33994 5.77485 8.04999 5.77485H4.19999C3.91004 5.77485 3.67499 5.5398 3.67499 5.24985C3.67499 4.9599 3.91004 4.72485 4.19999 4.72485H8.04999Z" fill="#E8F2FF"/>
<path d="M9.79999 7.34985C10.0899 7.34985 10.325 7.5849 10.325 7.87485C10.325 8.1648 10.0899 8.39985 9.79999 8.39985H4.19999C3.91004 8.39985 3.67499 8.1648 3.67499 7.87485C3.67499 7.5849 3.91004 7.34985 4.19999 7.34985H9.79999Z" fill="#E8F2FF"/>
</svg>
