<svg width="113" height="30" viewBox="0 0 113 30" fill="none" xmlns="http://www.w3.org/2000/svg">
<path d="M80.3036 5.35327C85.7214 3.00882 89.4609 4.75233 90.621 8.36597C91.9504 12.4455 88.6706 15.0358 85.244 16.283C83.38 16.9614 81.7777 17.0793 80.2499 16.8904C81.0778 18.4827 83.2986 18.6991 86.4784 17.5417C87.8765 17.0329 90.2742 15.6013 91.1014 14.8035L93.452 18.449C91.516 20.2091 89.2487 21.3145 87.3846 21.9929C81.5225 24.1266 77.5403 22.7433 75.5399 19.0007C73.7586 20.4436 71.7795 21.3885 70.119 21.9929C63.5946 24.3676 59.3969 22.3868 57.6708 17.6443L57.4911 17.1511C56.1341 13.4229 57.3012 7.84487 63.038 5.35327C68.4557 3.00882 72.1943 4.75233 73.3544 8.36597C74.684 12.4456 71.4051 15.0358 67.9784 16.283C66.1144 16.9614 64.512 17.0793 62.9843 16.8904C63.8123 18.4826 66.0329 18.6991 69.2128 17.5417C70.4728 17.0831 73.137 15.5113 74.2567 14.6218C74.0865 11.2304 75.7634 7.32525 80.3036 5.35327ZM68.2059 10.0847C67.8966 9.2349 67.0687 8.6663 65.369 9.28491C63.6695 9.90356 62.349 11.223 62.1327 13.1023C63.3291 13.3188 64.8668 13.1931 66.1278 12.7341C67.1969 12.345 68.7047 11.4553 68.2059 10.0847ZM85.4716 10.0847C85.1623 9.23498 84.3349 8.66656 82.6356 9.28491C80.936 9.90353 79.6146 11.223 79.3983 13.1023C80.5947 13.3188 82.1334 13.1931 83.3944 12.7341C84.4635 12.3449 85.9703 11.4551 85.4716 10.0847Z" fill="#0064FF"/>
<path d="M43.3033 5.31699H48.9628V7.82584C50.3048 5.98796 52.2594 4.87939 54.5348 4.87939C55.3808 4.87939 56.2268 5.02526 56.6353 5.20029L55.9059 10.9765C55.1475 10.7139 54.3306 10.5973 53.5721 10.5973C50.9466 10.5973 48.9628 11.8225 48.9628 14.6231V22.7915H43.3033V5.31699Z" fill="#0064FF"/>
<path d="M33.6106 18.9551C32.2627 20.5492 30.4314 20.8473 28.4632 20.5989C23.7166 19.9998 21.058 16.1358 21.6754 11.2444C22.3366 6.00568 26.1647 3.16617 30.7666 3.747C32.1559 3.92235 34.0549 4.48548 34.9763 5.57211L33.3325 9.51062C32.9784 9.05428 32.0924 8.619 31.0215 8.48384C28.7929 8.20256 27.5753 9.69551 27.2833 11.7758C26.8854 14.6954 28.3568 15.8514 30.1223 16.0742C32.322 16.3519 34.0608 14.6895 34.4143 12.5876L35.4116 4.68612L41.0555 5.39846L38.944 22.1276C38.2171 27.8873 34.5641 29.5727 28.9201 28.8604C26.3442 28.5352 22.3728 27.1519 20.8905 26.0827L22.7668 21.4678C25.2039 22.8927 28.0254 23.6017 29.4726 23.7844C31.7302 24.0693 33.0188 23.6439 33.2636 21.7047L33.6106 18.9551Z" fill="#0064FF"/>
<path d="M11.5232 10.3343C11.0856 9.98426 10.1813 9.63419 9.18942 9.63419C6.68056 9.63419 5.65951 11.7055 5.63034 13.9226C5.60117 16.9566 7.40988 18.3277 9.24776 18.3277C11.815 18.3277 13.1569 16.1981 13.1569 13.2516V5.31662H18.8456V17.3941C18.8456 18.1526 19.079 18.2693 19.3999 18.2402C19.7208 18.1818 20.5376 17.8317 20.6251 17.7442L21.2961 21.5075C20.2751 22.3243 18.7289 22.8786 17.1536 22.8786H16.8327C14.528 22.7619 13.7987 20.7198 13.9154 19.5529C13.0402 21.8576 10.4438 23.0245 8.11002 23.0245C2.91727 23.0245 0 19.232 0 14.0976C0 8.64232 3.06314 4.96655 8.22672 4.96655C9.62701 4.96655 11.7858 5.49166 12.5151 6.33767L11.5232 10.3343Z" fill="#0064FF"/>
<path d="M96.0804 1.72261C99.0633 1.26017 101.921 1.39809 104.18 1.98367C107.766 2.91329 111.247 5.4128 110.596 9.55352C110.116 12.6839 108.046 14.7392 105.203 15.3585C104.402 15.5426 103.559 15.6556 102.767 15.6912L101.141 19.5193L96.6795 18.3627L97.6247 12.1585C98.8902 12.2755 99.9591 12.2211 101.12 12.1604C103.265 12.0233 104.546 11.1499 104.837 9.44714C105.053 8.14708 104.121 7.2121 102.511 6.79487C100.986 6.3996 99.2759 6.13716 96.2083 6.57764L96.0804 1.72261Z" fill="#0064FF"/>
<circle cx="97.7796" cy="23.6601" r="2.96286" transform="rotate(14.5315 97.7796 23.6601)" fill="#0064FF"/>
</svg>
