<svg width="180" height="48" viewBox="0 0 180 48" fill="none" xmlns="http://www.w3.org/2000/svg">
<path d="M128.486 8.56543C137.155 4.81448 143.137 7.60401 144.993 13.3857C147.12 19.913 141.873 24.0582 136.391 26.0537C133.408 27.1391 130.844 27.3268 128.399 27.0244C129.724 29.5722 133.277 29.9182 138.365 28.0664C140.602 27.2522 144.438 24.962 145.762 23.6855L149.523 29.5186C146.426 32.3347 142.798 34.1029 139.815 35.1885C130.437 38.602 124.063 36.391 120.862 30.4043C118.013 32.7118 114.845 34.2217 112.189 35.1885C101.751 38.9877 95.0342 35.8193 92.2724 28.2314L91.9853 27.4414C89.8143 21.4763 91.6817 12.5509 100.86 8.56445C109.529 4.81335 115.511 7.60396 117.367 13.3857C119.494 19.913 114.248 24.0572 108.766 26.0527C105.783 27.1383 103.219 27.3268 100.774 27.0244C102.099 29.5722 105.652 29.9183 110.74 28.0664C112.756 27.3326 117.02 24.8187 118.811 23.3955C118.539 17.969 121.222 11.7206 128.486 8.56543ZM136.755 16.1357C136.26 14.7761 134.936 13.8669 132.217 14.8564C129.497 15.8462 127.384 17.957 127.038 20.9639C128.952 21.3102 131.413 21.1093 133.431 20.375C135.141 19.7523 137.553 18.3285 136.755 16.1357ZM109.13 16.1357C108.635 14.776 107.31 13.8667 104.591 14.8564C101.871 15.8463 99.7591 17.957 99.413 20.9639C101.327 21.3101 103.787 21.1092 105.805 20.375C107.515 19.7524 109.928 18.3285 109.13 16.1357Z" fill="#0064FF"/>
<path d="M69.2852 8.50703H78.3404V12.5212C80.4875 9.58058 83.6149 7.80688 87.2556 7.80688C88.6092 7.80688 89.9629 8.04027 90.6163 8.32032L89.4494 17.5622C88.2358 17.1421 86.9289 16.9554 85.7153 16.9554C81.5144 16.9554 78.3404 18.9158 78.3404 23.3967V36.466H69.2852V8.50703Z" fill="#0064FF"/>
<path d="M53.777 30.328C51.6203 32.8786 48.6902 33.3556 45.5412 32.9582C37.9465 31.9996 33.6929 25.8172 34.6807 17.991C35.7386 9.60911 41.8635 5.06591 49.2266 5.99525C51.4495 6.2758 54.4879 7.1768 55.9621 8.9154L53.3319 15.217C52.7654 14.4868 51.3478 13.7904 49.6344 13.5741C46.0686 13.1241 44.1205 15.5128 43.6534 18.8412C43.0167 23.5125 45.3708 25.3622 48.1957 25.7187C51.7152 26.1629 54.4973 23.5031 55.0629 20.1401L56.6586 7.49782L65.6888 8.63756L62.3105 35.404C61.1473 44.6195 55.3025 47.3162 46.2722 46.1764C42.1507 45.6562 35.7965 43.4428 33.4249 41.7321L36.4269 34.3483C40.3263 36.6283 44.8407 37.7626 47.1562 38.0548C50.7683 38.5107 52.8302 37.83 53.2218 34.7274L53.777 30.328Z" fill="#0064FF"/>
<path d="M18.4372 16.5349C17.737 15.9748 16.2901 15.4147 14.7031 15.4147C10.6889 15.4147 9.05522 18.7287 9.00854 22.2761C8.96186 27.1304 11.8558 29.3242 14.7964 29.3242C18.9039 29.3242 21.051 25.9168 21.051 21.2026V8.50665H30.1529V27.8306C30.1529 29.0441 30.5263 29.2309 31.0398 29.1842C31.5532 29.0908 32.8602 28.5307 33.0002 28.3907L34.0738 34.4119C32.4401 35.7188 29.9662 36.6057 27.4457 36.6057H26.9323C23.2448 36.419 22.0779 33.1517 22.2646 31.2846C20.8643 34.972 16.7101 36.8391 12.976 36.8391C4.66764 36.8391 0 30.7712 0 22.5562C0 13.8277 4.90102 7.94653 13.1627 7.94653C15.4032 7.94653 18.8573 8.7867 20.0242 10.1403L18.4372 16.5349Z" fill="#0064FF"/>
<path d="M153.729 2.75616C158.501 2.01627 163.073 2.23692 166.688 3.17386C172.426 4.66123 177.995 8.66043 176.953 15.2856C176.185 20.2941 172.874 23.5826 168.325 24.5735C167.044 24.8681 165.695 25.0489 164.426 25.1058L161.826 31.2307L154.687 29.3802L156.199 19.4534C158.224 19.6407 159.935 19.5536 161.792 19.4565C165.224 19.2371 167.274 17.8397 167.739 15.1153C168.086 13.0353 166.593 11.5393 164.017 10.8717C161.577 10.2393 158.841 9.81941 153.933 10.5242L153.729 2.75616Z" fill="#0064FF"/>
<ellipse cx="4.74057" cy="4.74055" rx="4.74057" ry="4.74055" transform="matrix(0.96801 0.250912 -0.250914 0.968009 153.048 32.0774)" fill="#0064FF"/>
</svg>
